<svg width="18" height="18" viewBox="0 0 18 18" fill="none" xmlns="http://www.w3.org/2000/svg">
<g filter="url(#filter0_b_3506_5965)">
<rect width="18" height="18" rx="9" fill="url(#paint0_linear_3506_5965)"/>
</g>
<path d="M9 9C10.3807 9 11.5 7.88071 11.5 6.5C11.5 5.11929 10.3807 4 9 4C7.61929 4 6.5 5.11929 6.5 6.5C6.5 7.88071 7.61929 9 9 9Z" fill="#222222"/>
<path d="M9.0001 10.25C6.49508 10.25 4.45508 11.93 4.45508 14C4.45508 14.14 4.56508 14.25 4.70508 14.25H13.2951C13.4351 14.25 13.5451 14.14 13.5451 14C13.5451 11.93 11.5051 10.25 9.0001 10.25Z" fill="#222222"/>
<defs>
<filter id="filter0_b_3506_5965" x="-6.66667" y="-6.66667" width="31.3333" height="31.3333" filterUnits="userSpaceOnUse" color-interpolation-filters="sRGB">
<feFlood flood-opacity="0" result="BackgroundImageFix"/>
<feGaussianBlur in="BackgroundImageFix" stdDeviation="3.33333"/>
<feComposite in2="SourceAlpha" operator="in" result="effect1_backgroundBlur_3506_5965"/>
<feBlend mode="normal" in="SourceGraphic" in2="effect1_backgroundBlur_3506_5965" result="shape"/>
</filter>
<linearGradient id="paint0_linear_3506_5965" x1="10.0496" y1="18" x2="10.0496" y2="0" gradientUnits="userSpaceOnUse">
<stop stop-color="#F5F5F5"/>
<stop offset="1" stop-color="white" stop-opacity="0.62"/>
</linearGradient>
</defs>
</svg>
